<svg xmlns="http://www.w3.org/2000/svg" version="1.1" xmlns:xlink="http://www.w3.org/1999/xlink" width="1500" height="1500" viewBox="0 0 1500 1500"><rect width="1500" height="1500" x="0" y="0" id="background" stroke="transparent" fill="#ffffff"></rect><svg xml:space="preserve" width="1000" height="1000" data-version="2" data-id="lg_GK4VR8jLzmtOQo2S0m" viewBox="0 0 565 95" x="250" y="250"><rect width="100%" height="100%" fill="transparent"></rect><path d="M184.865 31.66q0 4.38-2.33 7.45-2.34 3.06-7.23 3.06-4.89 0-7.08-3.25-2.19-3.24-2.19-7.99h5.84q0 5.77 3.43 5.77 1.82 0 2.77-1.43.95-1.42.95-3.61 0-3.5-3.21-5.58t-7.52-2.08q-7.59 0-12.19 5.8t-4.6 14.64q0 8.83 4.6 14.63 4.6 5.81 12.15 5.81 7.56 0 13.55-6.28l4.45 3.65q-6.5 8.47-17.67 8.47-11.17 0-17.41-7.27-6.24-7.26-6.24-18.87 0-11.6 6.28-19.01 6.28-7.41 17.08-7.41 6.64 0 11.61 3.76 4.96 3.76 4.96 9.74"></path><rect width="41.32" height="52.56" x="-20.66" y="-26.28" fill="none" rx="0" ry="0" transform="translate(166.1 44.94)"></rect><path d="m194.425 65.35-2.3-2.68q-2.29-2.68-2.29-10.93t4.59-13.62q4.6-5.36 12.93-5.36 8.32 0 12.92 5.36 4.6 5.37 4.6 13.62t-4.6 13.61q-4.6 5.37-12.92 5.37-8.33 0-12.93-5.37m4.6-23.32-1.49 1.9q-1.5 1.89-1.5 7.81 0 5.91 2.99 9.71 3 3.79 8.33 3.79 5.32 0 8.32-3.79 2.99-3.8 2.99-9.71 0-5.92-2.99-9.71-3-3.8-8.32-3.8-5.33 0-8.33 3.8"></path><rect width="35.04" height="37.96" x="-17.52" y="-18.98" fill="none" rx="0" ry="0" transform="translate(207.85 52.24)"></rect><path d="M261.375 15.24v50.37h5.98v3.06q-2.7 1.68-6.13 1.68-3.43 0-4.71-.98-1.28-.99-1.35-3.4-4.31 4.75-11.02 4.75-6.72 0-10.44-5.3-3.72-5.29-3.72-13.57 0-8.29 4.38-13.69t12.48-5.4q3.94 0 8.32 1.53V19.98h-5.62v-4.74Zm-25.19 36.24v3.01q0 3.01 2.41 6.88t6.75 3.87q4.35 0 7.08-3.43 2.74-3.43 2.74-8.25V40.57q-3.87-2.34-8.36-2.34-4.49 0-7.55 3.61-3.07 3.62-3.07 9.64"></path><rect width="37.37" height="55.48" x="-18.68" y="-27.74" fill="none" rx="0" ry="0" transform="translate(249.17 43.48)"></rect><path d="M302.615 49.25v3.87h-25.77q.37 5.33 3.14 8.73 2.77 3.39 7.45 3.39 3.06 0 5.51-.66 2.44-.65 3.39-1.2.95-.55 2.63-1.64l2.7 4.09q-5.55 4.89-13.87 4.89t-12.74-5.37q-4.41-5.36-4.41-13.61t4.41-13.62q4.42-5.36 12.05-5.36 7.63 0 11.57 4.6 3.94 4.59 3.94 11.89m-6.2-1.31q-.44-4.45-2.67-7.08t-6.35-2.63q-4.12 0-6.75 2.67-2.63 2.66-3.51 7.04z"></path><rect width="31.97" height="37.96" x="-15.98" y="-18.98" fill="none" rx="0" ry="0" transform="translate(287.13 52.24)"></rect><path d="M306.265 38.23v-4.01l5.62-.73h.73q2.34-5.48 3.14-9.64h3.07v9.64h10.87v4.74h-10.87v22.41q0 2.48.84 3.58.84 1.09 2.88 1.09t5.47-1.38l2.41 4.16q-4.16 2.63-8.9 2.63-4.75 0-6.83-2.49-2.08-2.48-2.08-6.42V38.23Z"></path><rect width="24.16" height="46.87" x="-12.08" y="-23.43" fill="none" rx="0" ry="0" transform="translate(318.85 47.78)"></rect><path d="M334.885 38.23v-4.74h11.82v31.75h6.35v4.75h-18.25v-4.75h5.7V38.23Zm8.54-11.24h-.81q-.8 0-1.82-1.17t-1.02-2.81q0-1.64 1.13-2.88t2.74-1.24q1.6 0 2.62 1.16 1.03 1.17 1.03 2.81 0 1.65-1.14 2.89-1.13 1.24-2.73 1.24"></path><rect width="18.25" height="51.1" x="-9.13" y="-25.55" fill="none" rx="0" ry="0" transform="translate(344.43 44.94)"></rect><path d="M388.825 15.24v50.37h5.99v3.06q-2.7 1.68-6.13 1.68-3.43 0-4.71-.98-1.28-.99-1.35-3.4-4.31 4.75-11.02 4.75-6.72 0-10.44-5.3-3.73-5.29-3.73-13.57 0-8.29 4.38-13.69t12.49-5.4q3.94 0 8.32 1.53V19.98h-5.62v-4.74Zm-25.18 36.24v3.01q0 3.01 2.41 6.88t6.75 3.87q4.34 0 7.08-3.43t2.74-8.25V40.57q-3.87-2.34-8.36-2.34-4.49 0-7.56 3.61-3.06 3.62-3.06 9.64"></path><rect width="37.38" height="55.48" x="-18.69" y="-27.74" fill="none" rx="0" ry="0" transform="translate(376.63 43.48)"></rect><path d="M430.075 49.25v3.87h-25.77q.36 5.33 3.14 8.73 2.77 3.39 7.44 3.39 3.07 0 5.52-.66 2.44-.65 3.39-1.2.95-.55 2.63-1.64l2.7 4.09q-5.55 4.89-13.87 4.89t-12.74-5.37q-4.42-5.36-4.42-13.61t4.42-13.62q4.42-5.36 12.05-5.36 7.62 0 11.57 4.6 3.94 4.59 3.94 11.89m-6.21-1.31q-.43-4.45-2.66-7.08t-6.35-2.63q-4.13 0-6.75 2.67-2.63 2.66-3.51 7.04z"></path><rect width="31.98" height="37.96" x="-15.99" y="-18.98" fill="none" rx="0" ry="0" transform="translate(414.58 52.24)"></rect><path d="M445.545 65.24h6.36v4.75h-18.18v-4.75h5.62V19.98h-5.62v-4.74h11.82v21.82q7.52-4.3 13.66-4.3 6.13 0 8.5 3.72t2.37 10.29v18.84h5.99v3.06q-2.7 1.68-6.24 1.68t-4.75-1.2q-1.2-1.21-1.2-3.91V46.77q0-4.23-1.1-6.39-1.09-2.15-5.03-2.15-3.95 0-12.2 4.38Z"></path><rect width="42.34" height="55.11" x="-21.17" y="-27.55" fill="none" rx="0" ry="0" transform="translate(455.4 43.3)"></rect><path d="M502.055 38.23v-4.74h11.82v32.12h5.99v3.06q-2.7 1.68-7.19 1.68t-4.93-3.87q-7.66 4.31-13.76 4.31t-8.47-3.72q-2.37-3.73-2.37-10.3V38.23h-5.62v-4.74h11.82v23.28q0 4.24 1.1 6.39 1.09 2.15 5.04 2.15 3.94 0 12.19-4.38v-22.7Z"></path><rect width="42.34" height="37.3" x="-21.17" y="-18.65" fill="none" rx="0" ry="0" transform="translate(499.2 52.64)"></rect><path d="M526.945 19.98h-5.62v-4.74h11.82V37.5q4.31-4.74 11.06-4.74 6.76 0 10.44 5.36 3.69 5.37 3.69 13.65 0 8.29-4.6 13.62t-13.36 5.33q-6.35 0-13.43-2.19Zm22.81 22.19-1.18-1.97q-1.19-1.97-5.57-1.97-4.38 0-7.12 3.43t-2.74 8.25V64q3.73 1.24 6.65 1.24 6.06 0 9.2-3.72 3.13-3.72 3.13-9.56t-2.37-9.79"></path><rect width="37.01" height="55.48" x="-18.5" y="-27.74" fill="none" rx="0" ry="0" transform="translate(540.33 43.48)"></rect><path fill="#9fa6b2" fill-rule="evenodd" d="M5.665 93.881V20.648h117.172v73.233zM117.955 89V25.531H10.547v63.468zM15.43 10.884h97.644v4.882H15.429zm9.764-9.765h78.116v4.883H25.193zm26 73.253L34.958 57.265l16.235-17.11 3.333 3.435-12.904 13.675L54.526 70.94zm26.115-34.214 16.236 17.107-16.236 17.11-3.332-3.435L86.88 57.265 73.976 43.59z"></path></svg></svg>